<svg width="60" height="59" viewBox="0 0 60 59" fill="none" xmlns="http://www.w3.org/2000/svg">
<path d="M31.2601 16.044C30.7343 15.5178 29.8811 15.5178 29.3544 16.044C28.8281 16.5699 28.8281 17.4235 29.3544 17.9498L39.5609 28.1562H17.4426C16.6962 28.1562 16.0907 28.7617 16.0907 29.5081C16.0907 30.255 16.6962 30.86 17.4426 30.86H39.5473L29.3409 41.0664C29.0877 41.3188 28.9454 41.6622 28.9454 42.0195C28.9454 42.3773 29.0877 42.7198 29.3409 42.9726C29.5941 43.2279 29.9408 43.3693 30.3007 43.3646C30.6593 43.363 31.0036 43.2224 31.2601 42.9726L43.7648 30.4684C44.0192 30.2135 44.1611 29.8676 44.1573 29.5081C44.1547 29.1495 44.0142 28.8065 43.7648 28.5487L31.2601 16.044Z" fill="#FFFEFE"/>
<path d="M30.0146 0.443444C18.259 0.441327 7.66004 7.52223 3.16144 18.3832C-1.33632 29.2447 1.15157 41.7459 9.46668 50.056C20.8154 61.4047 39.2146 61.4047 50.563 50.056C61.9113 38.708 61.9113 20.3089 50.563 8.96009C45.1253 3.49149 37.7264 0.424814 30.0146 0.443444ZM30.0146 55.8692C15.4823 55.8692 3.65385 44.0403 3.65385 29.508C3.65385 14.9757 15.4823 3.14726 30.0146 3.14726C44.5469 3.14726 56.3758 14.9757 56.3758 29.508C56.3758 44.0403 44.5469 55.8692 30.0146 55.8692Z" fill="#FFFEFE"/>
</svg>
