<svg width="108" height="29" viewBox="0 0 108 29" fill="none" xmlns="http://www.w3.org/2000/svg">
<rect x="13.0537" y="0.674805" width="12" height="25" rx="6" transform="rotate(30 13.0537 0.674805)" fill="#3011BC"/>
<rect x="29.9458" y="0.674805" width="12" height="25" rx="6" transform="rotate(30 29.9458 0.674805)" fill="#FE7A15"/>
<path d="M58.096 9.3L53.248 20.5H50.688L45.856 9.3H48.656L52.064 17.3L55.52 9.3H58.096ZM62.3105 20.628C61.4038 20.628 60.5878 20.4413 59.8625 20.068C59.1478 19.684 58.5878 19.156 58.1825 18.484C57.7772 17.812 57.5745 17.0493 57.5745 16.196C57.5745 15.3427 57.7772 14.58 58.1825 13.908C58.5878 13.236 59.1478 12.7133 59.8625 12.34C60.5878 11.956 61.4038 11.764 62.3105 11.764C63.2172 11.764 64.0278 11.956 64.7425 12.34C65.4572 12.7133 66.0172 13.236 66.4225 13.908C66.8278 14.58 67.0305 15.3427 67.0305 16.196C67.0305 17.0493 66.8278 17.812 66.4225 18.484C66.0172 19.156 65.4572 19.684 64.7425 20.068C64.0278 20.4413 63.2172 20.628 62.3105 20.628ZM62.3105 18.58C62.9505 18.58 63.4732 18.3667 63.8785 17.94C64.2945 17.5027 64.5025 16.9213 64.5025 16.196C64.5025 15.4707 64.2945 14.8947 63.8785 14.468C63.4732 14.0307 62.9505 13.812 62.3105 13.812C61.6705 13.812 61.1425 14.0307 60.7265 14.468C60.3105 14.8947 60.1025 15.4707 60.1025 16.196C60.1025 16.9213 60.3105 17.5027 60.7265 17.94C61.1425 18.3667 61.6705 18.58 62.3105 18.58ZM77.0085 11.892L73.1205 21.028C72.7258 22.02 72.2352 22.7187 71.6485 23.124C71.0725 23.5293 70.3738 23.732 69.5525 23.732C69.1045 23.732 68.6618 23.6627 68.2245 23.524C67.7872 23.3853 67.4298 23.1933 67.1525 22.948L68.0645 21.172C68.2565 21.3427 68.4752 21.476 68.7205 21.572C68.9765 21.668 69.2272 21.716 69.4725 21.716C69.8138 21.716 70.0912 21.6307 70.3045 21.46C70.5178 21.3 70.7098 21.028 70.8805 20.644L70.9125 20.564L67.1845 11.892H69.7605L72.1765 17.732L74.6085 11.892H77.0085ZM81.2178 11.764C82.5511 11.764 83.5751 12.084 84.2898 12.724C85.0044 13.3533 85.3618 14.308 85.3618 15.588V20.5H83.0258V19.428C82.5564 20.228 81.6818 20.628 80.4018 20.628C79.7404 20.628 79.1644 20.516 78.6738 20.292C78.1938 20.068 77.8258 19.7587 77.5698 19.364C77.3138 18.9693 77.1858 18.5213 77.1858 18.02C77.1858 17.22 77.4844 16.5907 78.0818 16.132C78.6898 15.6733 79.6231 15.444 80.8818 15.444H82.8658C82.8658 14.9 82.7004 14.484 82.3698 14.196C82.0391 13.8973 81.5431 13.748 80.8818 13.748C80.4231 13.748 79.9698 13.8227 79.5218 13.972C79.0844 14.1107 78.7111 14.3027 78.4018 14.548L77.5058 12.804C77.9751 12.4733 78.5351 12.2173 79.1858 12.036C79.8471 11.8547 80.5244 11.764 81.2178 11.764ZM81.0258 18.948C81.4524 18.948 81.8311 18.852 82.1618 18.66C82.4924 18.4573 82.7271 18.164 82.8658 17.78V16.9H81.1538C80.1298 16.9 79.6178 17.236 79.6178 17.908C79.6178 18.228 79.7404 18.484 79.9858 18.676C80.2418 18.8573 80.5884 18.948 81.0258 18.948ZM96.5945 11.892V19.06C96.5945 20.6387 96.1838 21.812 95.3625 22.58C94.5412 23.348 93.3412 23.732 91.7625 23.732C90.9305 23.732 90.1412 23.6307 89.3945 23.428C88.6478 23.2253 88.0292 22.932 87.5385 22.548L88.5305 20.756C88.8932 21.0547 89.3518 21.2893 89.9065 21.46C90.4612 21.6413 91.0158 21.732 91.5705 21.732C92.4345 21.732 93.0692 21.5347 93.4745 21.14C93.8905 20.756 94.0985 20.1693 94.0985 19.38V19.012C93.4478 19.7267 92.5412 20.084 91.3785 20.084C90.5892 20.084 89.8638 19.9133 89.2025 19.572C88.5518 19.22 88.0345 18.7293 87.6505 18.1C87.2665 17.4707 87.0745 16.7453 87.0745 15.924C87.0745 15.1027 87.2665 14.3773 87.6505 13.748C88.0345 13.1187 88.5518 12.6333 89.2025 12.292C89.8638 11.94 90.5892 11.764 91.3785 11.764C92.6265 11.764 93.5758 12.1747 94.2265 12.996V11.892H96.5945ZM91.8745 18.036C92.5358 18.036 93.0745 17.844 93.4905 17.46C93.9172 17.0653 94.1305 16.5533 94.1305 15.924C94.1305 15.2947 93.9172 14.788 93.4905 14.404C93.0745 14.0093 92.5358 13.812 91.8745 13.812C91.2132 13.812 90.6692 14.0093 90.2425 14.404C89.8158 14.788 89.6025 15.2947 89.6025 15.924C89.6025 16.5533 89.8158 17.0653 90.2425 17.46C90.6692 17.844 91.2132 18.036 91.8745 18.036ZM107.35 16.228C107.35 16.26 107.334 16.484 107.302 16.9H100.79C100.907 17.4333 101.184 17.8547 101.622 18.164C102.059 18.4733 102.603 18.628 103.254 18.628C103.702 18.628 104.096 18.564 104.438 18.436C104.79 18.2973 105.115 18.084 105.414 17.796L106.742 19.236C105.931 20.164 104.747 20.628 103.19 20.628C102.219 20.628 101.36 20.4413 100.614 20.068C99.867 19.684 99.291 19.156 98.8856 18.484C98.4803 17.812 98.2776 17.0493 98.2776 16.196C98.2776 15.3533 98.475 14.596 98.8696 13.924C99.275 13.2413 99.8243 12.7133 100.518 12.34C101.222 11.956 102.006 11.764 102.87 11.764C103.712 11.764 104.475 11.9453 105.158 12.308C105.84 12.6707 106.374 13.1933 106.758 13.876C107.152 14.548 107.35 15.332 107.35 16.228ZM102.886 13.652C102.32 13.652 101.846 13.812 101.462 14.132C101.078 14.452 100.843 14.8893 100.758 15.444H104.998C104.912 14.9 104.678 14.468 104.294 14.148C103.91 13.8173 103.44 13.652 102.886 13.652Z" fill="#3011BC"/>
</svg>
