<svg width="42" height="42" viewBox="0 0 42 42" fill="none" xmlns="http://www.w3.org/2000/svg">
<path d="M24.7188 22L25.1562 19.125H22.375V17.25C22.375 16.4375 22.75 15.6875 24 15.6875H25.2812V13.2188C25.2812 13.2188 24.125 13 23.0312 13C20.75 13 19.25 14.4062 19.25 16.9062V19.125H16.6875V22H19.25V29H22.375V22H24.7188Z" fill="#FFFEFE"/>
<path d="M21 41C9.95431 41 1 32.0457 1 21H-1C-1 33.1503 8.84974 43 21 43V41ZM41 21C41 32.0457 32.0457 41 21 41V43C33.1503 43 43 33.1503 43 21H41ZM21 1C32.0457 1 41 9.95431 41 21H43C43 8.84974 33.1503 -1 21 -1V1ZM21 -1C8.84974 -1 -1 8.84974 -1 21H1C1 9.95431 9.95431 1 21 1V-1Z" fill="#FFFEFE"/>
</svg>
