<svg width="42" height="42" viewBox="0 0 42 42" fill="none" xmlns="http://www.w3.org/2000/svg">
<path d="M21 17.4062C19 17.4062 17.4062 19.0312 17.4062 21C17.4062 23 19 24.5938 21 24.5938C22.9688 24.5938 24.5938 23 24.5938 21C24.5938 19.0312 22.9688 17.4062 21 17.4062ZM21 23.3438C19.7188 23.3438 18.6562 22.3125 18.6562 21C18.6562 19.7188 19.6875 18.6875 21 18.6875C22.2812 18.6875 23.3125 19.7188 23.3125 21C23.3125 22.3125 22.2812 23.3438 21 23.3438ZM25.5625 17.2812C25.5625 16.8125 25.1875 16.4375 24.7188 16.4375C24.25 16.4375 23.875 16.8125 23.875 17.2812C23.875 17.75 24.25 18.125 24.7188 18.125C25.1875 18.125 25.5625 17.75 25.5625 17.2812ZM27.9375 18.125C27.875 17 27.625 16 26.8125 15.1875C26 14.375 25 14.125 23.875 14.0625C22.7188 14 19.25 14 18.0938 14.0625C16.9688 14.125 16 14.375 15.1562 15.1875C14.3438 16 14.0938 17 14.0312 18.125C13.9688 19.2812 13.9688 22.75 14.0312 23.9062C14.0938 25.0312 14.3438 26 15.1562 26.8438C16 27.6562 16.9688 27.9062 18.0938 27.9688C19.25 28.0312 22.7188 28.0312 23.875 27.9688C25 27.9062 26 27.6562 26.8125 26.8438C27.625 26 27.875 25.0312 27.9375 23.9062C28 22.75 28 19.2812 27.9375 18.125ZM26.4375 25.125C26.2188 25.75 25.7188 26.2188 25.125 26.4688C24.1875 26.8438 22 26.75 21 26.75C19.9688 26.75 17.7812 26.8438 16.875 26.4688C16.25 26.2188 15.7812 25.75 15.5312 25.125C15.1562 24.2188 15.25 22.0312 15.25 21C15.25 20 15.1562 17.8125 15.5312 16.875C15.7812 16.2812 16.25 15.8125 16.875 15.5625C17.7812 15.1875 19.9688 15.2812 21 15.2812C22 15.2812 24.1875 15.1875 25.125 15.5625C25.7188 15.7812 26.1875 16.2812 26.4375 16.875C26.8125 17.8125 26.7188 20 26.7188 21C26.7188 22.0312 26.8125 24.2188 26.4375 25.125Z" fill="#FFFEFE"/>
<path d="M21 41C9.95431 41 1 32.0457 1 21H-1C-1 33.1503 8.84974 43 21 43V41ZM41 21C41 32.0457 32.0457 41 21 41V43C33.1503 43 43 33.1503 43 21H41ZM21 1C32.0457 1 41 9.95431 41 21H43C43 8.84974 33.1503 -1 21 -1V1ZM21 -1C8.84974 -1 -1 8.84974 -1 21H1C1 9.95431 9.95431 1 21 1V-1Z" fill="#FFFEFE"/>
</svg>
