<svg width="280" height="47" viewBox="0 0 280 47" fill="none" xmlns="http://www.w3.org/2000/svg">
<rect x="20.5745" y="-3.52637" width="23.3617" height="48.6702" rx="11.6809" transform="rotate(30 20.5745 -3.52637)" fill="#3011BC"/>
<rect x="53.4574" y="-3.52637" width="23.3617" height="48.6702" rx="11.6809" transform="rotate(30 53.4574 -3.52637)" fill="#FE7A15"/>
<path d="M108.261 13.084L98.8232 34.8883H93.8394L84.4324 13.084H89.8835L96.5182 28.6585L103.246 13.084H108.261ZM116.466 35.1375C114.701 35.1375 113.112 34.7741 111.7 34.0473C110.309 33.2997 109.219 32.2718 108.43 30.9635C107.641 29.6553 107.246 28.1705 107.246 26.5092C107.246 24.848 107.641 23.3632 108.43 22.0549C109.219 20.7467 110.309 19.7292 111.7 19.0023C113.112 18.2548 114.701 17.881 116.466 17.881C118.231 17.881 119.81 18.2548 121.201 19.0023C122.592 19.7292 123.682 20.7467 124.471 22.0549C125.261 23.3632 125.655 24.848 125.655 26.5092C125.655 28.1705 125.261 29.6553 124.471 30.9635C123.682 32.2718 122.592 33.2997 121.201 34.0473C119.81 34.7741 118.231 35.1375 116.466 35.1375ZM116.466 31.1504C117.712 31.1504 118.73 30.7351 119.519 29.9045C120.329 29.0531 120.734 27.9213 120.734 26.5092C120.734 25.0972 120.329 23.9758 119.519 23.1452C118.73 22.2938 117.712 21.8681 116.466 21.8681C115.22 21.8681 114.192 22.2938 113.382 23.1452C112.573 23.9758 112.168 25.0972 112.168 26.5092C112.168 27.9213 112.573 29.0531 113.382 29.9045C114.192 30.7351 115.22 31.1504 116.466 31.1504ZM145.08 18.1302L137.511 35.9162C136.743 37.8475 135.788 39.2076 134.645 39.9967C133.524 40.7858 132.164 41.1804 130.565 41.1804C129.693 41.1804 128.831 41.0454 127.98 40.7755C127.128 40.5055 126.433 40.1317 125.893 39.6541L127.668 36.1966C128.042 36.5288 128.468 36.7884 128.945 36.9753C129.444 37.1622 129.932 37.2556 130.409 37.2556C131.074 37.2556 131.614 37.0895 132.029 36.7572C132.444 36.4458 132.818 35.9162 133.15 35.1686L133.213 35.0129L125.955 18.1302H130.97L135.673 29.4995L140.408 18.1302H145.08ZM153.275 17.881C155.871 17.881 157.864 18.504 159.256 19.7499C160.647 20.9751 161.343 22.8337 161.343 25.3256V34.8883H156.795V32.8013C155.881 34.3588 154.178 35.1375 151.686 35.1375C150.399 35.1375 149.278 34.9195 148.322 34.4834C147.388 34.0473 146.671 33.4451 146.173 32.6767C145.675 31.9084 145.425 31.0362 145.425 30.0602C145.425 28.5028 146.007 27.2776 147.17 26.3846C148.353 25.4917 150.17 25.0452 152.621 25.0452H156.483C156.483 23.9862 156.161 23.1763 155.518 22.6156C154.874 22.0342 153.908 21.7435 152.621 21.7435C151.728 21.7435 150.845 21.8888 149.973 22.1795C149.122 22.4495 148.395 22.8233 147.793 23.3009L146.048 19.9057C146.962 19.2619 148.052 18.7635 149.319 18.4105C150.607 18.0575 151.925 17.881 153.275 17.881ZM152.901 31.8669C153.732 31.8669 154.469 31.68 155.113 31.3062C155.757 30.9116 156.213 30.3406 156.483 29.593V27.8798H153.15C151.157 27.8798 150.16 28.5339 150.16 29.8422C150.16 30.4652 150.399 30.9635 150.877 31.3373C151.375 31.6903 152.05 31.8669 152.901 31.8669ZM183.211 18.1302V32.0849C183.211 35.1583 182.411 37.4425 180.812 38.9377C179.213 40.4328 176.877 41.1804 173.804 41.1804C172.184 41.1804 170.647 40.9831 169.194 40.5886C167.74 40.194 166.536 39.6229 165.58 38.8754L167.512 35.3867C168.218 35.9681 169.11 36.425 170.19 36.7572C171.27 37.1103 172.35 37.2868 173.43 37.2868C175.112 37.2868 176.347 36.9026 177.137 36.1343C177.946 35.3867 178.351 34.2446 178.351 32.7079V31.9915C177.085 33.3828 175.32 34.0784 173.056 34.0784C171.519 34.0784 170.107 33.7462 168.82 33.0817C167.553 32.3964 166.546 31.4412 165.798 30.216C165.051 28.9908 164.677 27.5787 164.677 25.9797C164.677 24.3807 165.051 22.9686 165.798 21.7435C166.546 20.5183 167.553 19.5734 168.82 18.9089C170.107 18.2236 171.519 17.881 173.056 17.881C175.486 17.881 177.334 18.6805 178.601 20.2795V18.1302H183.211ZM174.022 30.0914C175.309 30.0914 176.358 29.7176 177.168 28.97C177.998 28.2017 178.414 27.2049 178.414 25.9797C178.414 24.7545 177.998 23.7681 177.168 23.0206C176.358 22.2522 175.309 21.8681 174.022 21.8681C172.734 21.8681 171.675 22.2522 170.844 23.0206C170.014 23.7681 169.598 24.7545 169.598 25.9797C169.598 27.2049 170.014 28.2017 170.844 28.97C171.675 29.7176 172.734 30.0914 174.022 30.0914ZM204.149 26.5715C204.149 26.6338 204.118 27.0699 204.055 27.8798H191.378C191.606 28.9181 192.146 29.7383 192.997 30.3406C193.849 30.9428 194.908 31.2439 196.175 31.2439C197.047 31.2439 197.815 31.1193 198.48 30.8701C199.165 30.6001 199.798 30.1848 200.38 29.6241L202.965 32.4275C201.387 34.2342 199.082 35.1375 196.05 35.1375C194.16 35.1375 192.489 34.7741 191.035 34.0473C189.581 33.2997 188.46 32.2718 187.671 30.9635C186.882 29.6553 186.487 28.1705 186.487 26.5092C186.487 24.8687 186.871 23.3943 187.64 22.0861C188.429 20.7571 189.498 19.7292 190.848 19.0023C192.219 18.2548 193.745 17.881 195.427 17.881C197.068 17.881 198.552 18.234 199.881 18.9401C201.21 19.6461 202.249 20.6636 202.996 21.9926C203.765 23.3009 204.149 24.8272 204.149 26.5715ZM195.458 21.5566C194.358 21.5566 193.434 21.868 192.686 22.491C191.938 23.114 191.482 23.9654 191.315 25.0452H199.57C199.404 23.9862 198.947 23.1452 198.199 22.5222C197.452 21.8784 196.538 21.5566 195.458 21.5566Z" fill="#3011BC"/>
</svg>
